# xmcd
#
# Track frame offsets: 
#        150
#        14900
#        29765
#        45335
#        60240
#        75514
#        89515
#        104119
#        118886
#        132711
#        147495
#        161149
#        176978
#        192161
#        207721
#        221398
#        234020
#        249003
#        263989
#        277744
#        291361
#        305292
#        320204
#        335635
#
# Disc length: 4681 seconds
#
# Revision: 0
# Processed by: cddbd v1.5.2PL0 Copyright (c) Steve Scherf et al.
# Submitted via: ExactAudioCopy v0.99pb4
#
DISCID=77124718
DTITLE=Louis ARMSTRONG - New Orleans in Chicago
DYEAR=1900
DGENRE=Blues
TTITLE0=Tight Like This
TTITLE1=Knockin' A Jug
TTITLE2=I Can't Give You Anything But Love
TTITLE3=Mahogany Hall Stomp
TTITLE4=Ain't Misbehavin'
TTITLE5=Black and Blue (What Did I Do To Be So)
TTITLE6=That Rhythm Man
TTITLE7=Sweet Savannah Sue
TTITLE8=Some Of These Days
TTITLE9=Some Of These Days (Vocal)
TTITLE10=When You're Smiling
TTITLE11=When You're Smiling (Vocal)
TTITLE12=After You've Gone
TTITLE13=After You've Gone (Vocal)
TTITLE14=I Ain't Got Nobody
TTITLE15=I Ain't Got Nobody (Vocal)
TTITLE16=Dallas Blues
TTITLE17=Dallas Blues (Vocal)
TTITLE18=St. Louis Blues 01
TTITLE19=St. Louis Blues 02
TTITLE20=St. Louis Blues (Vocal)
TTITLE21=Rockin' Chair 01
TTITLE22=Rockin' Chair 02
TTITLE23=Song Of The Islands
EXTD=
EXTT0=
EXTT1=
EXTT2=
EXTT3=
EXTT4=
EXTT5=
EXTT6=
EXTT7=
EXTT8=
EXTT9=
EXTT10=
EXTT11=
EXTT12=
EXTT13=
EXTT14=
EXTT15=
EXTT16=
EXTT17=
EXTT18=
EXTT19=
EXTT20=
EXTT21=
EXTT22=
EXTT23=
PLAYORDER=
